<svg id="Layer_1" data-name="Layer 1" xmlns="http://www.w3.org/2000/svg" viewBox="0 0 334.18 334.25"><defs><style>.cls-1{fill:#2d3e50;}.cls-2{fill:#344a5e;}.cls-3{fill:#f0f0f0;}.cls-4{fill:#feffff;}.cls-5{fill:#fafbfb;}.cls-6{fill:#fafbfc;}.cls-7{fill:#ecf0f2;}.cls-8{fill:#bec3c7;}.cls-9{fill:#17414e;}.cls-10{fill:#94a5a5;}.cls-11{fill:#7f8c8d;}.cls-12{fill:#b1b2b3;}.cls-13{fill:#b2b3b2;}.cls-14{fill:#737d83;}</style></defs><title>Untitled-1</title><g id="KiTdl0.tif"><path class="cls-1" d="M46.35,159.39a88.81,88.81,0,0,0-2.69,13.38A145.52,145.52,0,0,0,42.1,198.7c1.31,37.88,14.65,70.89,40.28,98.85a150.32,150.32,0,0,0,92.29,47.32,151.31,151.31,0,0,0,167.93-174A151,151,0,0,0,211.89,44.75a155.29,155.29,0,0,0-35.63-.22,145.56,145.56,0,0,0-17.71,3.06,4.31,4.31,0,0,0-.7.3c0.11,0.86.9,0.89,1.47,1.11,4.46,1.69,9,3.32,13.35,5.14,7.53,3.12,15.22,5.85,22.68,9.14,3.94,1.73,7.89,3.43,11.84,5.15,9.31,4,18.36,8.61,27.23,13.52,3.32,1.84,6.66,3.65,9.8,5.79a4.85,4.85,0,0,0,3,.89c2.19-.32,4.28-1,6.41-1.56a2.09,2.09,0,0,0,1.44-1.82c0.59-2.28,1.09-4.58,1.66-6.8,0.47,2.45,1.27,4.87,1.8,7.36a1.72,1.72,0,0,0,1.36,1.33c2.42,0.65,4.86,1.25,7.26,1.82-2,.5-4.15,1.08-6.27,1.54a2.83,2.83,0,0,0-2.58,2.59,17.9,17.9,0,0,0-.49,2.4A2.43,2.43,0,0,0,259,97.7a177.41,177.41,0,0,1,18.79,16.12A133.08,133.08,0,0,1,290,127.7a131.81,131.81,0,0,1,16.4,27.4,143,143,0,0,1,6.86,19.11,159.08,159.08,0,0,1,4.53,22.3,117.5,117.5,0,0,1,.51,14.6,100.27,100.27,0,0,1-3.9,27.18A107.85,107.85,0,0,1,305,261.36a109.42,109.42,0,0,1-12,17.86,108.22,108.22,0,0,1-19.19,18.35c-1.11.8-2.55,1.41-3,2.94,0.1,2.2.29,2.64,4.58,3.19-3.81.19-4.23,0.58-5.17,4.82-0.1-3.56-.92-4.42-4.52-4.76a6.29,6.29,0,0,0-3.13,1.2,94.9,94.9,0,0,1-19.37,9,109.67,109.67,0,0,1-23.37,5.27,121.68,121.68,0,0,1-19.66.51,103,103,0,0,1-17.62-2.53,156,156,0,0,1-17.65-4.82,131.84,131.84,0,0,1-22.31-10A138.33,138.33,0,0,1,124.29,290a155.05,155.05,0,0,1-21.77-21.44,181,181,0,0,1-13.6-18.44,214.24,214.24,0,0,1-13.24-23.07c-0.49-1-1.16-1.94-1.6-3a0.7,0.7,0,0,0-.52-0.47c-0.86.06-.15-0.43-0.23-0.63-0.24-1.73-1.27-3.13-2-4.63-3.5-7-6.48-14.28-9.58-21.49-4-9.38-7.59-18.94-11.35-28.42-1-2.62-2-5.28-3.08-7.87C47.11,160.12,47.13,159.41,46.35,159.39Z" transform="translate(-10.32 -11.78)"/><path class="cls-2" d="M247.21,88.25c-1.91.26-3.11-1.16-4.51-2-6.31-3.79-12.76-7.29-19.33-10.6-4.29-2.17-8.62-4.22-13-6.24-6.15-2.85-12.4-5.45-18.65-8-10-4.15-20.12-8-30.21-12a20.66,20.66,0,0,1-3.66-1.51h-0.93c-1.65-.23-3.13.49-4.64,0.92a152.37,152.37,0,0,0-35.47,15,157,157,0,0,0-26.1,19.22A145.18,145.18,0,0,0,79.67,94.41,153.49,153.49,0,0,0,60.1,122.3a149.63,149.63,0,0,0-13.37,33.51,23.92,23.92,0,0,0-.37,2.7v0.88c0.76,1.85,1.43,3.75,2.16,5.59,0.81,2.06,1.68,4.13,2.5,6.21,3,7.63,5.9,15.34,9.13,22.89,2,4.79,4.13,9.56,6.12,14.37,2.08,5,4.73,9.79,6.93,14.76,2.81,0.71,4.3-.44,5.23-4.09-0.09,3.52,2.21,4.29,5,4.47,0.14,0.1-.14.34-0.05,0.16s0-.14-0.06-0.14c-3-.07-4,0.75-5,4.18-0.41-1.09-.35-2.43-1.29-3.16A3.18,3.18,0,0,0,73.8,224a25.44,25.44,0,0,0,2.61,5.5c3.41,6.53,7.14,12.87,11.08,19.11a202.58,202.58,0,0,0,13.28,18.57,146.48,146.48,0,0,0,11.29,12.52,136.9,136.9,0,0,0,42.28,29,147.89,147.89,0,0,0,22.32,7.61,143.13,143.13,0,0,0,18.06,3.37,110.13,110.13,0,0,0,20.32.42,104.77,104.77,0,0,0,25.78-4.95A125.52,125.52,0,0,0,261,306.48c1.57-.84,2.93-2.08,4.76-2.37,0.07-.17-0.28-0.33,0-0.49a1.22,1.22,0,0,1,.3,0c3.77-.81,4-1.11,4.37-5,0-.21.34,0.11,0.15,0s-0.11,0-.11.1c0.06,0.68-.16,1.47.74,1.8,0.65-1.3,2-1.9,3-2.71a107.82,107.82,0,0,0,13.7-12.24,118.68,118.68,0,0,0,11.24-13.77,115,115,0,0,0,9.59-16.89,107.55,107.55,0,0,0,5.83-15.79,104.93,104.93,0,0,0,3.2-15.71,87.55,87.55,0,0,0,1-12.51,125.34,125.34,0,0,0-.61-14.53c-0.45-3.38-.88-6.78-1.56-10.11-0.94-4.61-2-9.21-3.38-13.73a154.49,154.49,0,0,0-6-16.57,130,130,0,0,0-8-15.39c-2.2-3.64-4.6-7.12-7-10.6a107.38,107.38,0,0,0-7.5-9.32c-3.1-3.53-6.33-6.92-9.77-10.14a192,192,0,0,0-15.26-12.83c-0.71-.54-1.62-1-1.45-2.13-1.27,1.12-1.05,2.68-1.41,3.95-0.59-1.67-.67-3.74-1.6-5.53-1.85-1.08-3.34-2.74-5.48-3.37a0.48,0.48,0,0,0,.27-0.41c-1.27-1-2.83-1-4.29-1.33a0.68,0.68,0,0,1,.45,0,2,2,0,0,0,.61-0.07A0.53,0.53,0,0,0,247.21,88.25Z" transform="translate(-10.32 -11.78)"/><path class="cls-3" d="M32.14,41.72C42.2,60,50.34,80.39,48.86,101.13a196,196,0,0,1-38.54-6c17.46,17.06,26.89,40.49,35.84,63.2,6.39-22.35,16.53-43.22,31.56-61A149.68,149.68,0,0,1,89.2,85.12a155.06,155.06,0,0,1,67.57-37.29c-22.7-9.12-46.08-18.68-63.29-36.06,0.7,3.27,1.52,6.51,2.24,9.78a157.41,157.41,0,0,1,3.05,18.38c0.31,3.09.32,6.21,0.83,9.28,0.2,1.26-.53,1.42-1.56,1.44-26.72.63-48.3-13.8-71.33-24.9a18.22,18.22,0,0,1-2.78-1.64c-0.45-.33-1-0.76-1.52-0.31s-0.13,1,.13,1.52c0.67,1.21,1.39,2.39,2.11,3.57C27.18,33,29.72,37.32,32.14,41.72Z" transform="translate(-10.32 -11.78)"/><path class="cls-4" d="M254.94,94.07l1.84,6.77,1.44-5.28c0.26-1.14.56-2.28,0.76-3.43,0.15-.89.85-0.93,1.46-1.09,2.62-.67,5.25-1.3,7.91-2.2-2.54-.64-5.06-1.35-7.62-1.89A2.11,2.11,0,0,1,258.81,85c-0.53-2.57-1.27-5.11-2-8.13-0.7,2.79-1.4,5.12-1.85,7.5-0.29,1.54-.83,2.4-2.51,2.62a49.48,49.48,0,0,0-5.21,1.22c-0.53.54-1.43,0.09-1.94,0.78L250,90.37a3.12,3.12,0,0,0,1.78.76c1.4,0.22,2.52.74,2.79,2.32A1,1,0,0,0,254.94,94.07Z" transform="translate(-10.32 -11.78)"/><path class="cls-5" d="M73.8,224L74,224c2.3,0.12,3.85,1,3.9,3.61a7.84,7.84,0,0,0,.52,1.68,21.78,21.78,0,0,0,.82-3.07,1.94,1.94,0,0,1,2-1.89c0.9-.14,1.78-0.44,2.8-0.7a7.84,7.84,0,0,0-3.27-1,1.5,1.5,0,0,1-1.37-1.36,12,12,0,0,0-1.08-3.18,29.25,29.25,0,0,0-.74,2.89,1.75,1.75,0,0,1-1.75,1.72,22.26,22.26,0,0,0-2.55.52C72.41,224.26,74,223.43,73.8,224Z" transform="translate(-10.32 -11.78)"/><path class="cls-6" d="M271.17,300.51l-0.78-2.7c-0.38,1.45-.76,2.56-0.94,3.7a1.36,1.36,0,0,1-1.23,1.27,11.24,11.24,0,0,0-3.32.9l0.82,0.44c2.62,0,4.15,1.2,4.26,3.94a4,4,0,0,0,.29,1c0.18,0.24.26,0.21,0.27,0.05,0.2-3.37,1.75-5.4,5.53-5.23a4.87,4.87,0,0,0-2.63-.95A2.19,2.19,0,0,1,271.17,300.51Z" transform="translate(-10.32 -11.78)"/><path class="cls-7" d="M285.66,264.41a81.47,81.47,0,0,0,9.22-15.75,94.69,94.69,0,0,0,7.64-25.53,99.23,99.23,0,0,0,.8-22.24A96.29,96.29,0,0,0,272.18,137a96.81,96.81,0,0,0-24-16.17,92.51,92.51,0,0,0-15.11-5.62,1.92,1.92,0,0,1-1.51-1.45c-3.68-11.32-13.61-18-25.43-17.16A17.65,17.65,0,0,0,200,98a2.51,2.51,0,0,1-2.8-.39,70.61,70.61,0,0,0-21.64-10.37,72.54,72.54,0,0,0-29.23-2.2,71.26,71.26,0,0,0-32.63,12.63c-0.42.29-.79,0.65-1.18,1-4.81,6-7.89,12.93-10.15,20.23a71.45,71.45,0,0,0-3.2,23.53,22.54,22.54,0,0,0,.27,3.22,2.28,2.28,0,0,1-1.3,2.65A17.9,17.9,0,0,0,90,157.39c-2.56,6.29-1.41,15,3.85,20.14a18.23,18.23,0,0,0,17,5.18c0.91-.17,1.72-0.33,2.29.63s1.61,1.81.8,3.29A23,23,0,0,0,111.58,202a24,24,0,0,0,12.18,17.26c5.17,3,10.72,3.58,16.5,2.78a1.36,1.36,0,0,1,1.65,1,92.82,92.82,0,0,0,13.41,22.18,95.55,95.55,0,0,0,18,17.16c1.5,1.11,2.35.87,2.45-.73,0.29-4.59,2.33-8.45,4.95-12.07a7.32,7.32,0,0,0,.68-1.14,24.71,24.71,0,0,0,7.7,33.67c6.2,4.13,13,4.54,20.12,2.94a13,13,0,0,0,5.56-2.54c2.37-2,4.92-1.81,7.65-1.56,4.69,0.44,9.39.91,14.11,0.29,1-.13,2,0,2.92-0.08,2-.16,2.4-0.68,1.71-2.56a11.33,11.33,0,0,1,.74-9.23c-0.71,1.2-.87,3.38-0.63,5.57,0.54,5,4.53,9.75,9.43,10.64,6.7,1.22,12.36-.94,14.94-8.57a4.16,4.16,0,0,1,2.53-3A90.83,90.83,0,0,0,283.56,266,19.19,19.19,0,0,0,285.66,264.41Z" transform="translate(-10.32 -11.78)"/><path class="cls-8" d="M285.66,264.41c-2.59,1-4.8,2.71-7.15,4.13a88.25,88.25,0,0,1-10.85,5.26,3.58,3.58,0,0,0-2.3,2.7,11.36,11.36,0,0,1-8.58,8.67c-4.95,1.26-11.13-1.18-13.43-5.47-1.93-3.61-2.59-7.41-.5-11.27a0.91,0.91,0,0,0,.19-1,1.64,1.64,0,0,0-1.07,1c-1.76,3.28-2.55,6.66-1.19,10.32,0.64,1.72.47,2-1.29,2-3,0-6,.53-9,0.34a107.69,107.69,0,0,1-11.43-.92c-1.62-.28-2.58.83-3.68,1.56a21.42,21.42,0,0,1-11.05,3.67A24.25,24.25,0,0,1,192,283.27a23.67,23.67,0,0,1-7.13-5.18,24.41,24.41,0,0,1-6-10.55,25.83,25.83,0,0,1,1.78-17.32c0.43-1,1.13-1.85,1.59-2.85-1.39.82-2.09,2.24-3,3.47a19.7,19.7,0,0,0-4,10.77c0,1.25-.45,1.46-1.47.7a123.88,123.88,0,0,1-9.93-8.38,89.54,89.54,0,0,1-9.74-10.8A83.47,83.47,0,0,1,147,232.2a69.32,69.32,0,0,1-4.9-10,1.07,1.07,0,0,0-1.47-.63,23.08,23.08,0,0,1-14.84-1.63c-7.66-3.78-12.53-9.88-13.85-18.58a27.23,27.23,0,0,1,.8-10.91,17.5,17.5,0,0,1,1.89-4.13,1.63,1.63,0,0,0,0-1.75c-1.09-2.62-3-2.59-5.26-2-3.73.9-7.27-.14-10.52-1.78a16.71,16.71,0,0,1-9.24-11.79c-1.7-8.35,1-15.86,9-20.3a2.42,2.42,0,0,0,1.43-2.8,61,61,0,0,1,.29-14.82,77.78,77.78,0,0,1,3-13.4,73.54,73.54,0,0,1,8-16.73c0.45-.72,1.27-1.22,1.32-2.19a49.51,49.51,0,0,0-8.79,7.42,70.85,70.85,0,0,0-13.86,19.81,73.26,73.26,0,0,0-.69,60.71,70.21,70.21,0,0,0,12.88,19.53,76.1,76.1,0,0,0,7.25,6.86,2.59,2.59,0,0,1,1,2.09,70.64,70.64,0,0,0,1.42,11.71A94.71,94.71,0,0,0,123.73,258a97.36,97.36,0,0,0,60.8,44.6,105.51,105.51,0,0,0,11.27,1.93A97.55,97.55,0,0,0,234,301.3a96.49,96.49,0,0,0,31.87-16.2,100.2,100.2,0,0,0,19.34-19.88A5.43,5.43,0,0,0,285.66,264.41Z" transform="translate(-10.32 -11.78)"/><path class="cls-9" d="M254.94,94.07c-0.33-2.68-.33-2.69-2.86-3.28-0.69-.16-1.4-0.28-2.1-0.42-0.11.11-.54,0.14-0.33,0.27C251.45,91.73,253,93.17,254.94,94.07Z" transform="translate(-10.32 -11.78)"/><path class="cls-10" d="M192,107.31a22.19,22.19,0,0,0-4.61,11.25c-0.83,8.32,2.43,14.83,9,19.59a20.15,20.15,0,0,0,16.2,3.28,21.86,21.86,0,0,0,9-4.22,20.3,20.3,0,0,0,3.76-13.77,19.47,19.47,0,0,0-2.37-8.21c-1.06-1.9-1.88-4-3.68-5.41-4.9-3.9-10.22-6.49-16.73-6.07A20.49,20.49,0,0,0,192,107.31Z" transform="translate(-10.32 -11.78)"/><path class="cls-10" d="M186.13,247.77a19.09,19.09,0,0,0-4.52,9.23,19.62,19.62,0,0,0,0,9.13,21.32,21.32,0,0,0,7.51,11.81,21.11,21.11,0,0,0,26.92-.52,27,27,0,0,0,2.39-5.3c2-7.8.73-15-4.87-20.9a21.39,21.39,0,0,0-25.68-4.58C187.28,247,186.9,247.68,186.13,247.77Z" transform="translate(-10.32 -11.78)"/><path class="cls-10" d="M119.69,184.06a20.8,20.8,0,0,0-5,12.53,20,20,0,0,0,3.8,13.4,21.21,21.21,0,0,0,27,6.6,16.87,16.87,0,0,0,4-2.64c0.57-1.43,1.54-2.65,2-4.13,1.92-6.09,1.87-12.13-1.3-17.75a21,21,0,0,0-18.42-11.22,19.68,19.68,0,0,0-11.57,3.06A0.76,0.76,0,0,1,119.69,184.06Z" transform="translate(-10.32 -11.78)"/><path class="cls-10" d="M251.57,172.68a14.4,14.4,0,0,0-3.78,8.59,15.08,15.08,0,0,0,12.78,16.37c4.56,0.74,8.36-.78,12-3.17a2.37,2.37,0,0,0,.46-0.6c0.41-1.19,1.16-2.22,1.56-3.43,2.82-8.7-2.74-18.32-11.75-19.89C258.91,169.86,255,170.19,251.57,172.68Z" transform="translate(-10.32 -11.78)"/><path class="cls-10" d="M95.61,154.77a14.83,14.83,0,0,0-1,18.22c3.18,4.24,7.28,6.76,12.66,6.7a14.74,14.74,0,0,0,9.67-3.61c3.79-4.76,3.42-13.23-.55-18.05a15,15,0,0,0-11.21-5.83,16.06,16.06,0,0,0-7.08,1C97.13,153.61,96.49,154.36,95.61,154.77Z" transform="translate(-10.32 -11.78)"/><path class="cls-11" d="M186.13,247.77c0.23,0.36.47,0.23,0.77,0.05q11.33-6.58,22.42.4a19.86,19.86,0,0,1,9.39,14.25,20.88,20.88,0,0,1-2.5,13.93c-0.18.31-.69,0.61-0.11,1,11.94-10,8.91-28.91-4.77-35.32A21.05,21.05,0,0,0,186.13,247.77Z" transform="translate(-10.32 -11.78)"/><path class="cls-11" d="M119.69,184.06c0,0.56.24,0.37,0.55,0.21a22.5,22.5,0,0,1,8-2.85,20.84,20.84,0,0,1,15.22,3.72,19.41,19.41,0,0,1,7.67,9.88c2,6,1.79,11.84-1.33,17.47-0.23.41-.88,0.85-0.27,1.46a20.89,20.89,0,0,0,5-25.9A19.88,19.88,0,0,0,139,176.92C131.25,175.85,124.91,178.43,119.69,184.06Z" transform="translate(-10.32 -11.78)"/><path class="cls-11" d="M192,107.31c0.25,0.34.48,0.21,0.77,0,6.75-4.67,16.9-4.12,23.32.72a20.6,20.6,0,0,1,2.46,1.65,21.82,21.82,0,0,1,4.4,24.78c-0.42.93-1.38,1.59-1.34,2.74a21,21,0,0,0,2.68-30.46,20.09,20.09,0,0,0-15.78-7.09C201.68,99.63,196.4,102.37,192,107.31Z" transform="translate(-10.32 -11.78)"/><path class="cls-10" d="M248.12,266.28c-2.87,1.77-4,6.63-3.31,9,1,3.69,3.26,6.25,7.22,7.07,3.56,0.73,6.34-.53,8.7-3.08a9.93,9.93,0,0,0,.4-7.42,9.21,9.21,0,0,0-3.34-4.44,2.1,2.1,0,0,1-1.08-2.33c-0.14-.42-1-0.19-0.85-0.9,0-.17-0.11-0.19-0.39.31a3.7,3.7,0,0,1-3.19,1.11C250.82,265.36,249.51,266.06,248.12,266.28Z" transform="translate(-10.32 -11.78)"/><path class="cls-10" d="M142.28,147.59a7.86,7.86,0,0,0-5.1,1.31c-0.64.07-2.14,2.49-2.3,3.25-0.35,1.61.47,2.92-.25,2.83-0.78,3.56,1.58,7.08,4.91,8.77a9.09,9.09,0,0,0,10.64-2.16,12,12,0,0,0,1-5,8.89,8.89,0,0,0-2.51-6.1C147.48,149.16,143.91,147.84,142.28,147.59Z" transform="translate(-10.32 -11.78)"/><path class="cls-12" d="M222.43,140.71c-10.38,6.51-21.33,5.27-28.83-1-11.1-9.22-11.87-20.5-5.52-32.82-5.86,6.18-8.15,13.53-6.36,21.85A23.58,23.58,0,0,0,200,147.34C208.67,149.16,216.14,146.83,222.43,140.71Z" transform="translate(-10.32 -11.78)"/><path class="cls-12" d="M272.75,198.18c-10.18,4.85-18.84,3.35-25.33-5.9-2.92-4.16-4.68-11.22.23-19.68-3.46,1.89-6.66,9.53-6,14.54,1.07,8,5.31,13.7,13.17,16C261.11,205.05,268.75,203.15,272.75,198.18Z" transform="translate(-10.32 -11.78)"/><path class="cls-11" d="M95.61,154.77c1.25-.11,2.18-1,3.33-1.41,9.59-3.34,20,3.46,20.15,13.57a15.38,15.38,0,0,1-2.18,8.61c-0.12.19-.2,0.35,0,0.53a15.27,15.27,0,0,0-2.18-24.66,15.49,15.49,0,0,0-15.9.53A14,14,0,0,0,95.61,154.77Z" transform="translate(-10.32 -11.78)"/><path class="cls-11" d="M251.57,172.68c1,0.29,1.53-.55,2.27-0.84a15.13,15.13,0,0,1,20.76,10.74A15.46,15.46,0,0,1,273.12,193c-0.14.29-.57,0.54-0.07,0.88a14.71,14.71,0,0,0,4.9-10.26c0.31-6.26-3.45-12.46-8.72-14.67A15.15,15.15,0,0,0,251.57,172.68Z" transform="translate(-10.32 -11.78)"/><path class="cls-13" d="M149.3,166.2c-1.62.3-3.1,1.1-4.79,1.27a12,12,0,0,1-12.81-14.82,0.79,0.79,0,0,0-.46-1.12c-0.65-.18-0.55.5-0.65,0.81-1.75,5.5-.77,10.37,3.75,14.13a12.27,12.27,0,0,0,13.15,1.24c0.67-.33,1.29-0.76,1.93-1.15Z" transform="translate(-10.32 -11.78)"/><path class="cls-11" d="M256.72,265a5.93,5.93,0,0,1-.59.88c-0.46.48-.35,0.68,0.22,1,4.35,2.48,5.89,6.49,4.38,11.24-0.11.34-.52,0.72,0,1.08,3.25-4.49,2.77-9.31-1.3-12.89A4.54,4.54,0,0,0,256.72,265Z" transform="translate(-10.32 -11.78)"/><path class="cls-14" d="M148.62,148a9.42,9.42,0,0,1,1.55,13.63c-0.56-.45,0-0.83.11-1.2a9.3,9.3,0,0,0-2.41-10.21c-0.26-.23-3-2.23-4.39-2.06a4,4,0,0,1-1.2-.13c-1.83-.37-3.39.68-5.1,0.92A9.17,9.17,0,0,1,148.62,148Z" transform="translate(-10.32 -11.78)"/><path class="cls-11" d="M248.12,266.28a38.33,38.33,0,0,0,6.56-.65,1.21,1.21,0,0,0,.81-1.19C252.83,264.23,250.29,264.51,248.12,266.28Z" transform="translate(-10.32 -11.78)"/></g></svg>