<svg id="Layer_1" data-name="Layer 1" xmlns="http://www.w3.org/2000/svg" viewBox="0 0 228 176"><defs><style>.cls-1{fill:none;stroke:#fff;stroke-miterlimit:10;stroke-width:1.5px;}</style></defs><path class="cls-1" d="M113.73,121.4c21.37,0,39.32,12.86,45.52,32.53H186.4C179.59,119.52,149.51,95,113.73,95S48.21,119.52,41.4,153.93h27C74.6,134.26,92.37,121.4,113.73,121.4Z"/><rect class="cls-1" x="111.77" y="46.86" width="5.04" height="29.12" rx="2.06"/><rect class="cls-1" x="49.19" y="77.43" width="5.04" height="25.29" rx="1.83" transform="translate(-48.55 62.95) rotate(-45)"/><rect class="cls-1" x="163.99" y="87.36" width="25.29" height="5.04" rx="1.83" transform="translate(-11.82 151.23) rotate(-45)"/><path class="cls-1" d="M186.42,154.31h23a2.05,2.05,0,0,1,2.06,2.05v11.72a2.06,2.06,0,0,1-2.06,2.06H18.56a2.06,2.06,0,0,1-2.06-2.06V156.36a2.05,2.05,0,0,1,2.06-2.05H186.42Z"/></svg>